<?xml version="1.0" encoding="utf-8"?>
<!-- Generator: Adobe Illustrator 24.3.0, SVG Export Plug-In . SVG Version: 6.00 Build 0)  -->
<svg version="1.0" id="Layer_1" xmlns="http://www.w3.org/2000/svg" xmlns:xlink="http://www.w3.org/1999/xlink" x="0px" y="0px"
	 viewBox="0 0 62 62" enable-background="new 0 0 62 62" xml:space="preserve">
<g>
	<path fill="#3AB6CB" d="M51.3,50.6c0,0,1.6,0.3,2.1,0.7c0,0-8.5,9.1-21.7,9.1s-19.3-4.8-19.3-4.8l23.5-2
		C35.9,53.5,49.7,51.6,51.3,50.6z"/>
	<path fill="#3AB6CB" d="M50.2,49.5c0,0-17.2-3-28.6-1.8S2.9,50.5,2.9,50.5s4.2,1.2,6.3,2.7c0,0,8.8-1.5,12.3-1.2
		c3.5,0.3,13.7-0.4,17.2-0.8C40.2,51,50.2,49.5,50.2,49.5z"/>
	<path fill="#3AB6CB" d="M60.5,46.8l-5.6,1.7c0,0-16-5.5-42.7-2.7C12.2,45.8,38.7,38.4,60.5,46.8z"/>
	<path fill="#12394C" d="M22.1,5.3c0,0-23.1,11.7-16,31.9c0,0,3.1-1.8,8.8-0.8c0,0-9.5-9.8,1.4-24.8c0,0-8.9,13.4,0.5,25.1l8.6,2.2
		C25.3,38.8,8.3,25.4,22.1,5.3z"/>
	<path fill="#12394C" d="M1.8,39.5c0,0,0.6,5,5.1,7.3c0,0,11.3-3.1,19.9-3.6l4.7-3.6L1.8,39.5z"/>
	<path fill="#F47939" d="M24,5C24,5,13.1,26.6,35,39.4c0,0-1.7,1.1-2.4,1.4c0,0,14.2-1.4,22.6,2c0,0,8.2-15.7-5.2-30.2
		C37.7,0.2,24,5,24,5z"/>
	<path fill="#12394C" d="M16.3,1.6c0,0,1.4,1.3,4.1,0.5c1.9-0.6,2.4-0.6,2.8-0.6c0.3,0.1,0.4,0.3,0.3,0.6l-0.4,1.5
		c0,0.1-0.1,0.1-0.1,0.2c-0.2,0.1-0.6,0.4-1,0.5c-0.3,0.1-1.3,0.3-1.3,0.3s-2.2,0.9-4.5-0.8c0,0,1.4,0,1.6-0.4
		C17.8,3.4,16.4,2.6,16.3,1.6z"/>
</g>
</svg>
