 <svg id="Layer_1" data-name="Layer 1" xmlns="http://www.w3.org/2000/svg" viewBox="0 0 150 30" width="150" height="30">
<defs><style>.cls-1{fill:#3ab6cb;}.cls-2{fill:#12394c;}.cls-3{fill:#f47939;}.cls-4{fill:none;}</style></defs><path class="cls-1" d="M26.2,25.3a3.6,3.6,0,0,1,1.1.3A15.4,15.4,0,0,1,16.8,30c-6.3-.1-9.2-2.3-9.2-2.3l11.2-1S25.4,25.8,26.2,25.3Z"/><path class="cls-1" d="M25.7,24.8s-8.3-1.5-13.7-.9-9,1.3-9,1.3a13.5,13.5,0,0,1,3,1.3,43.2,43.2,0,0,1,6-.6,75.8,75.8,0,0,0,8.2-.3Z"/><path class="cls-1" d="M30.7,23.4l-2.8.9S20.2,21.6,7.5,23C7.5,23,20.2,19.4,30.7,23.4Z"/><path class="cls-2" d="M12.2,3.5S1.1,9.2,4.5,18.8a7.2,7.2,0,0,1,4.2-.4s-4.6-4.6.7-11.9c0,0-4.3,6.4.2,12l4.1,1.1S5.6,13.2,12.2,3.5Z"/><path class="cls-2" d="M2.4,20a4.9,4.9,0,0,0,2.5,3.5,62.3,62.3,0,0,1,9.6-1.8L16.7,20Z"/><path class="cls-3" d="M13.1,3.4S7.9,13.8,18.4,19.9l-1.2.7s6.8-.7,10.9.9A13.1,13.1,0,0,0,25.6,7,12.6,12.6,0,0,0,13.1,3.4Z"/><path class="cls-2" d="M9.4,1.7a2,2,0,0,0,2,.3l1.3-.3c.2,0,.2.2.2.3l-.2.7h0l-.5.2-.6.2a2.5,2.5,0,0,1-2.2-.4s.7,0,.8-.2S9.5,2.2,9.4,1.7Z"/><path class="cls-2" d="M35.8,13.6h2.3v6.3h5.2v1.6H35.8Z"/><path class="cls-2" d="M48.7,13.6h2.1l4.5,7.9H52.9l-1-1.8H47.5l-1,1.8H44.2Zm2.4,4.6-1.4-2.6-1.4,2.6Z"/><path class="cls-2" d="M56.4,17.6h0c0-2.3,2.3-4.1,5.5-4.1A6.7,6.7,0,0,1,66,14.6l-1.4,1.3a4.9,4.9,0,0,0-2.8-.8c-1.6,0-3,1.1-3,2.4h0C58.8,19,60.2,20,62,20a4.8,4.8,0,0,0,2.2-.4V18.4H61.9V17h4.5v3.4a9.3,9.3,0,0,1-4.5,1.2C58.7,21.6,56.4,19.9,56.4,17.6Z"/><path class="cls-2" d="M68.7,13.6H71v7.9H68.7Z"/><path class="cls-2" d="M80.6,15.2H77.4V13.6h8.7v1.6H82.9v6.3H80.6Z"/><path class="cls-2" d="M87.4,17.6h0c0-2.3,2.3-4.1,5.5-4.1s5.6,1.8,5.6,4h0c0,2.2-2.4,4-5.6,4S87.4,19.8,87.4,17.6Zm8.7,0h0c0-1.4-1.3-2.5-3.2-2.5s-3.1,1.1-3.1,2.4h0c0,1.3,1.3,2.4,3.1,2.4S96.1,18.9,96.1,17.6Z"/><path class="cls-2" d="M100.4,18.1V13.6h2.3v4.5c0,1.3.8,1.9,2.2,1.9s2.3-.6,2.3-1.9V13.6h2.3v4.5c0,2.3-1.8,3.5-4.6,3.5S100.4,20.4,100.4,18.1Z"/><path class="cls-2" d="M111.8,13.6h4.8a5.4,5.4,0,0,1,3.1.8,2.3,2.3,0,0,1,.9,1.8h0c0,1.3-.9,2.1-2.3,2.5l2.6,2.8h-2.7L115.9,19h-1.8v2.5h-2.3Zm4.7,3.8c1.1,0,1.7-.4,1.7-1.1h0c0-.7-.6-1.1-1.8-1.1h-2.3v2.2Z"/><rect class="cls-4" width="123.6" height="33.29"/></svg>